solid OpenSCAD_Model
  facet normal 0 0 -1
    outer loop
      vertex 3.5 -3.40001 0
      vertex 0.699997 -0.583328 0
      vertex 3.5 -0.583328 0
    endloop
  endfacet
  facet normal 0 0 -1
    outer loop
      vertex 0.699997 -0.583328 0
      vertex -0.699997 -0.583328 0
      vertex 0.699997 0.583328 0
    endloop
  endfacet
  facet normal 0 0 -1
    outer loop
      vertex 3.5 -3.40001 0
      vertex -0.699997 -0.583328 0
      vertex 0.699997 -0.583328 0
    endloop
  endfacet
  facet normal 0 0 -1
    outer loop
      vertex -3.5 -3.40001 0
      vertex -0.699997 -0.583328 0
      vertex 3.5 -3.40001 0
    endloop
  endfacet
  facet normal -0 0 -1
    outer loop
      vertex -0.699997 -0.583328 0
      vertex -3.5 -3.40001 0
      vertex -3.5 -0.583328 0
    endloop
  endfacet
  facet normal 0 0 -1
    outer loop
      vertex 0.699997 0.583328 0
      vertex 3.5 3.40001 0
      vertex 3.5 0.583328 0
    endloop
  endfacet
  facet normal 0 0 -1
    outer loop
      vertex -0.699997 0.583328 0
      vertex 0.699997 0.583328 0
      vertex -0.699997 -0.583328 0
    endloop
  endfacet
  facet normal 0 0 -1
    outer loop
      vertex 0.699997 0.583328 0
      vertex -0.699997 0.583328 0
      vertex 3.5 3.40001 0
    endloop
  endfacet
  facet normal 0 0 -1
    outer loop
      vertex -3.5 3.40001 0
      vertex -0.699997 0.583328 0
      vertex -3.5 0.583328 0
    endloop
  endfacet
  facet normal 0 0 -1
    outer loop
      vertex -0.699997 0.583328 0
      vertex -3.5 3.40001 0
      vertex 3.5 3.40001 0
    endloop
  endfacet
  facet normal 0 0 1
    outer loop
      vertex 3.5 2.00001 1.4
      vertex 0.699997 0.583328 1.4
      vertex 3.5 0.583328 1.4
    endloop
  endfacet
  facet normal 0 0 1
    outer loop
      vertex 0.699997 0.583328 1.4
      vertex -0.699997 0.583328 1.4
      vertex 0.699997 -0.583328 1.4
    endloop
  endfacet
  facet normal 0 0 1
    outer loop
      vertex 3.5 2.00001 1.4
      vertex -0.699997 0.583328 1.4
      vertex 0.699997 0.583328 1.4
    endloop
  endfacet
  facet normal -0 0 1
    outer loop
      vertex -3.5 2.00001 1.4
      vertex -0.699997 0.583328 1.4
      vertex 3.5 2.00001 1.4
    endloop
  endfacet
  facet normal 0 0 1
    outer loop
      vertex -0.699997 0.583328 1.4
      vertex -3.5 2.00001 1.4
      vertex -3.5 0.583328 1.4
    endloop
  endfacet
  facet normal -0 0 1
    outer loop
      vertex 0.699997 -0.583328 1.4
      vertex 3.5 -2.00001 1.4
      vertex 3.5 -0.583328 1.4
    endloop
  endfacet
  facet normal 0 0 1
    outer loop
      vertex -0.699997 -0.583328 1.4
      vertex 0.699997 -0.583328 1.4
      vertex -0.699997 0.583328 1.4
    endloop
  endfacet
  facet normal -0 0 1
    outer loop
      vertex -0.699997 -0.583328 1.4
      vertex 3.5 -2.00001 1.4
      vertex 0.699997 -0.583328 1.4
    endloop
  endfacet
  facet normal 0 0 1
    outer loop
      vertex -3.5 -2.00001 1.4
      vertex -0.699997 -0.583328 1.4
      vertex -3.5 -0.583328 1.4
    endloop
  endfacet
  facet normal 0 0 1
    outer loop
      vertex -0.699997 -0.583328 1.4
      vertex -3.5 -2.00001 1.4
      vertex 3.5 -2.00001 1.4
    endloop
  endfacet
  facet normal 0 1 -0
    outer loop
      vertex 3.5 -0.583328 0
      vertex 0.699997 -0.583328 1.4
      vertex 3.5 -0.583328 1.4
    endloop
  endfacet
  facet normal 0 1 0
    outer loop
      vertex 0.699997 -0.583328 1.4
      vertex 3.5 -0.583328 0
      vertex 0.699997 -0.583328 0
    endloop
  endfacet
  facet normal 1 -0 0
    outer loop
      vertex 0.699997 -0.583328 1.4
      vertex 0.699997 0.583328 0
      vertex 0.699997 0.583328 1.4
    endloop
  endfacet
  facet normal 1 0 0
    outer loop
      vertex 0.699997 0.583328 0
      vertex 0.699997 -0.583328 1.4
      vertex 0.699997 -0.583328 0
    endloop
  endfacet
  facet normal 0 -1 0
    outer loop
      vertex 0.699997 0.583328 0
      vertex 3.5 0.583328 1.4
      vertex 0.699997 0.583328 1.4
    endloop
  endfacet
  facet normal 0 -1 -0
    outer loop
      vertex 3.5 0.583328 1.4
      vertex 0.699997 0.583328 0
      vertex 3.5 0.583328 0
    endloop
  endfacet
  facet normal 1 0 0
    outer loop
      vertex 3.5 0.583328 0
      vertex 3.5 2.00001 1.4
      vertex 3.5 0.583328 1.4
    endloop
  endfacet
  facet normal 1 0 0
    outer loop
      vertex 3.5 2.00001 1.4
      vertex 3.5 0.583328 0
      vertex 3.5 3.40001 0
    endloop
  endfacet
  facet normal -1 0 0
    outer loop
      vertex -3.5 0.583328 0
      vertex -3.5 2.00001 1.4
      vertex -3.5 3.40001 0
    endloop
  endfacet
  facet normal -1 -0 0
    outer loop
      vertex -3.5 2.00001 1.4
      vertex -3.5 0.583328 0
      vertex -3.5 0.583328 1.4
    endloop
  endfacet
  facet normal 0 -1 0
    outer loop
      vertex -3.5 0.583328 0
      vertex -0.699997 0.583328 1.4
      vertex -3.5 0.583328 1.4
    endloop
  endfacet
  facet normal 0 -1 -0
    outer loop
      vertex -0.699997 0.583328 1.4
      vertex -3.5 0.583328 0
      vertex -0.699997 0.583328 0
    endloop
  endfacet
  facet normal -1 0 0
    outer loop
      vertex -0.699997 -0.583328 0
      vertex -0.699997 0.583328 1.4
      vertex -0.699997 0.583328 0
    endloop
  endfacet
  facet normal -1 -0 0
    outer loop
      vertex -0.699997 0.583328 1.4
      vertex -0.699997 -0.583328 0
      vertex -0.699997 -0.583328 1.4
    endloop
  endfacet
  facet normal 0 1 -0
    outer loop
      vertex -0.699997 -0.583328 0
      vertex -3.5 -0.583328 1.4
      vertex -0.699997 -0.583328 1.4
    endloop
  endfacet
  facet normal 0 1 0
    outer loop
      vertex -3.5 -0.583328 1.4
      vertex -0.699997 -0.583328 0
      vertex -3.5 -0.583328 0
    endloop
  endfacet
  facet normal -1 0 0
    outer loop
      vertex -3.5 -0.583328 0
      vertex -3.5 -2.00001 1.4
      vertex -3.5 -0.583328 1.4
    endloop
  endfacet
  facet normal -1 0 -0
    outer loop
      vertex -3.5 -2.00001 1.4
      vertex -3.5 -0.583328 0
      vertex -3.5 -3.40001 0
    endloop
  endfacet
  facet normal 1 -0 0
    outer loop
      vertex 3.5 -2.00001 1.4
      vertex 3.5 -0.583328 0
      vertex 3.5 -0.583328 1.4
    endloop
  endfacet
  facet normal 1 0 0
    outer loop
      vertex 3.5 -0.583328 0
      vertex 3.5 -2.00001 1.4
      vertex 3.5 -3.40001 0
    endloop
  endfacet
  facet normal 0 -0.707107 0.707107
    outer loop
      vertex -3.5 -3.40001 0
      vertex 3.5 -2.00001 1.4
      vertex -3.5 -2.00001 1.4
    endloop
  endfacet
  facet normal 0 -0.707107 0.707107
    outer loop
      vertex 3.5 -2.00001 1.4
      vertex -3.5 -3.40001 0
      vertex 3.5 -3.40001 0
    endloop
  endfacet
  facet normal 0 0.707107 0.707107
    outer loop
      vertex 3.5 3.40001 0
      vertex -3.5 2.00001 1.4
      vertex 3.5 2.00001 1.4
    endloop
  endfacet
  facet normal 0 0.707107 0.707107
    outer loop
      vertex -3.5 2.00001 1.4
      vertex 3.5 3.40001 0
      vertex -3.5 3.40001 0
    endloop
  endfacet
endsolid OpenSCAD_Model
